<svg xmlns="http://www.w3.org/2000/svg" version="1.1" xmlns:xlink="http://www.w3.org/1999/xlink" xmlns:svgjs="http://svgjs.com/svgjs" id="Pattern1652SvgRootPreview" width="100%" height="100%"><defs><pattern x="0" y="0" width="1" height="1" patternUnits="userSpaceOnUse" id="Pattern1652Layer1"><g id="PatternRootContent1"><g id="Pattern1652Layer1background"><rect width="1" height="1" id="Pattern1652Background1" class="color_1 fill_color_1" fill="#859cab"></rect></g></g></pattern><pattern x="0" y="0" width="41" height="70" patternUnits="userSpaceOnUse" id="Pattern1652Layer2" patternTransform="matrix(1,0,0,1,0,0)"><g id="PatternRootContent2"><g id="Pattern1652Layer2Element2"><use xlink:href="#Pattern1652Element2" x="20.577186584472656" y="-37.84577751159668" transform="translate(41, -17.5) scale(1) translate(-41, 17.5) rotate(0, 41, -17.5)"></use><use xlink:href="#Pattern1652Element2" x="-20.422813415527344" y="-37.84577751159668" transform="translate(0, -17.5) scale(1) translate(0, 17.5) rotate(0, 0, -17.5)"></use><use xlink:href="#Pattern1652Element2" x="0.07718658447265625" y="-2.8457775115966797" transform="translate(20.5, 17.5) scale(1) translate(-20.5, -17.5) rotate(0, 20.5, 17.5)"></use><use xlink:href="#Pattern1652Element2" x="-40.922813415527344" y="-2.8457775115966797" transform="translate(-20.5, 17.5) scale(1) translate(20.5, -17.5) rotate(0, -20.5, 17.5)"></use><use xlink:href="#Pattern1652Element2" x="20.577186584472656" y="32.15422248840332" transform="translate(41, 52.5) scale(1) translate(-41, -52.5) rotate(0, 41, 52.5)"></use><use xlink:href="#Pattern1652Element2" x="-20.422813415527344" y="32.15422248840332" transform="translate(0, 52.5) scale(1) translate(0, -52.5) rotate(0, 0, 52.5)"></use><use xlink:href="#Pattern1652Element2" x="0.07718658447265625" y="67.15422248840332" transform="translate(20.5, 87.5) scale(1) translate(-20.5, -87.5) rotate(0, 20.5, 87.5)"></use><use xlink:href="#Pattern1652Element2" x="0.07718658447265625" y="67.15422248840332" transform="translate(20.5, 87.5) scale(1) translate(-20.5, -87.5) rotate(0, 20.5, 87.5)"></use></g></g></pattern><symbol id="Pattern1652Element2"><g class="color_3 fill_color_3" fill="#5e4e37"><path d="M18.781,5.775649070739746L13.703,10.852676391601562L14.411,11.559782981872559C15.973,13.122,15.973,15.654,14.411,17.216636657714844L13.887,17.739896774291992L21.199,22.3643741607666C21.991,22.859,23.023,22.746,23.681,22.088603973388672L26.431,19.33795738220215L25.017,17.923744201660156L22.267,20.674388885498047L16.857,17.244922637939453L16.864,17.237852096557617C17.932,15.251,17.805,12.79,16.468,10.916316032409668L20.195,7.1898627281188965C21.482,7.798,23.094,7.459,23.985,6.143344402313232C24.657,5.146,24.642,3.789,23.964,2.7987289428710938C22.868,1.208,20.661,1.066,19.36,2.367394208908081C18.441,3.287,18.257,4.658,18.781,5.775649070739746M20.775,3.7816078662872314C21.163,3.393,21.8,3.393,22.189,3.7816078662872314S22.578,4.807,22.189,5.195821285247803S21.163,5.585,20.775,5.195821285247803S20.386,4.17,20.775,3.7816078662872314M13.703,16.509531021118164C14.877,15.336,14.877,13.441,13.703,12.266890525817871S10.635,11.093,9.461,12.266890525817871S8.287,15.336,9.461,16.509531021118164S12.53,17.683,13.703,16.509531021118164M10.875,13.681103706359863C11.264,13.292,11.9,13.292,12.289,13.681103706359863S12.678,14.706,12.289,15.095317840576172S11.264,15.484,10.875,15.095317840576172S10.486,14.07,10.875,13.681103706359863Z"></path><path d="M36.877,31.430089950561523L35.018,24.49474334716797L34.052,24.753562927246094C31.918,25.326,29.725,24.06,29.153,21.925134658813477L28.962,21.210350036621094L21.301,25.23004150390625C20.477,25.668,20.058,26.619,20.299,27.51735496520996L21.306,31.27480697631836L23.238,30.75716781616211L22.231,26.99971580505371L27.906,24.029800415039062L27.908,24.039461135864258C29.095,25.958,31.29,27.078,33.581,26.8572998046875L34.945,31.947729110717773C33.775,32.758,33.263,34.324,33.956,35.75330352783203C34.484,36.834,35.667,37.5,36.863,37.40724182128906C38.789,37.254,40.015,35.414,39.538,33.6363639831543C39.202,32.381,38.106,31.536,36.877,31.430089950561523M37.607,34.15400314331055C37.749,34.685,37.431,35.236,36.899,35.378746032714844S35.817,35.203,35.675,34.6716423034668S35.851,33.589,36.382,33.446895599365234S37.464,33.623,37.607,34.15400314331055M30.119,21.666316986083984C30.549,23.27,32.19,24.217,33.794,23.787635803222656S36.345,21.717,35.915,20.113401412963867S33.844,17.562,32.241,17.992082595825195S29.69,20.063,30.119,21.666316986083984M33.983,20.631040573120117C34.125,21.162,33.807,21.713,33.276,21.855785369873047S32.194,21.68,32.051,21.148677825927734S32.227,20.066,32.758,19.923933029174805S33.841,20.1,33.983,20.631040573120117Z"></path><path d="M5.611,34.27465057373047L12.547,36.13296890258789L12.805,35.16704559326172C13.377,33.032,15.57,31.767,17.704,32.338619232177734L18.419,32.53014373779297L18.768,23.88597297668457C18.801,22.953,18.187,22.115,17.289,21.874431610107422L13.531,20.867624282836914L13.013,22.799476623535156L16.771,23.80628204345703L16.506,30.205665588378906L16.496,30.20307731628418C14.241,30.272,12.174,31.612,11.219,33.7067756652832L6.129,32.342796325683594C6.012,30.924,4.912,29.698,3.327,29.583740234375C2.128,29.5,0.959,30.192,0.442,31.2744197845459C-0.388,33.019,0.592,35,2.37,35.47663116455078C3.625,35.813,4.905,35.286,5.611,34.27465057373047M2.887,33.54478073120117C2.356,33.402,2.038,32.851,2.18,32.32003402709961S2.874,31.471,3.405,31.612926483154297S4.254,32.306,4.112,32.83767318725586S3.419,33.687,2.887,33.54478073120117M17.446,33.304542541503906C15.842,32.875,14.201,33.822,13.771,35.425865173339844S14.289,38.67,15.893,39.10009765625S19.137,38.582,19.567,36.97877883911133S19.049,33.734,17.446,33.304542541503906M16.41,37.16824722290039C15.879,37.026,15.561,36.475,15.703,35.94350051879883S16.397,35.094,16.928,35.23639678955078S17.777,35.93,17.635,36.46113967895508S16.942,37.311,16.41,37.16824722290039Z"></path></g></symbol></defs><rect width="100%" height="100%" id="Pattern1652RctLayer1" fill="url(#Pattern1652Layer1)"></rect><rect width="100%" height="100%" id="Pattern1652RctLayer2" fill="url(#Pattern1652Layer2)"></rect></svg>