<svg xmlns="http://www.w3.org/2000/svg" version="1.1" xmlns:xlink="http://www.w3.org/1999/xlink" xmlns:svgjs="http://svgjs.com/svgjs" id="Pattern1607SvgRootPreview" width="100%" height="100%"><defs><pattern x="0" y="0" width="1" height="1" patternUnits="userSpaceOnUse" id="Pattern1607Layer1"><g id="PatternRootContent1"><g id="Pattern1607Layer1background"><rect width="1" height="1" id="Pattern1607Background1" class="color_1 fill_color_1" fill="#d68024"></rect></g></g></pattern><pattern x="0" y="0" width="186" height="322" patternUnits="userSpaceOnUse" id="Pattern1607Layer2" patternTransform="matrix(0.4,0,0,0.4,0,0)"><g id="PatternRootContent2"><g id="Pattern1607Layer2Element3"><use xlink:href="#Pattern1607Element3" x="79.14286041259766" y="-178.03652954101562" transform="translate(186, -80.5) scale(1) translate(-186, 80.5) rotate(90, 186, -80.5)"></use><use xlink:href="#Pattern1607Element3" x="-106.85713958740234" y="-178.03652954101562" transform="translate(0, -80.5) scale(1) translate(0, 80.5) rotate(90, 0, -80.5)"></use><use xlink:href="#Pattern1607Element3" x="-13.857139587402344" y="-17.036529541015625" transform="translate(93, 80.5) scale(1) translate(-93, -80.5) rotate(90, 93, 80.5)"></use><use xlink:href="#Pattern1607Element3" x="-199.85713958740234" y="-17.036529541015625" transform="translate(-93, 80.5) scale(1) translate(93, -80.5) rotate(90, -93, 80.5)"></use><use xlink:href="#Pattern1607Element3" x="172.14286041259766" y="-17.036529541015625" transform="translate(279, 80.5) scale(1) translate(-279, -80.5) rotate(90, 279, 80.5)"></use><use xlink:href="#Pattern1607Element3" x="79.14286041259766" y="143.96347045898438" transform="translate(186, 241.5) scale(1) translate(-186, -241.5) rotate(90, 186, 241.5)"></use><use xlink:href="#Pattern1607Element3" x="-106.85713958740234" y="143.96347045898438" transform="translate(0, 241.5) scale(1) translate(0, -241.5) rotate(90, 0, 241.5)"></use><use xlink:href="#Pattern1607Element3" x="-13.857139587402344" y="304.9634704589844" transform="translate(93, 402.5) scale(1) translate(-93, -402.5) rotate(90, 93, 402.5)"></use><use xlink:href="#Pattern1607Element3" x="-13.857139587402344" y="304.9634704589844" transform="translate(93, 402.5) scale(1) translate(-93, -402.5) rotate(90, 93, 402.5)"></use></g></g></pattern><symbol id="Pattern1607Element3"><g class="color_4 fill_color_4" fill="#005887"><g><path d="M88.857,140.44744873046875l0,4l4,0l0,-4l-4,0Zm24,8l0,4l4,0l0,-4l-4,0ZM120.857,116.44744873046875l-28,0c-2.21,0,-4,1.79,-4,4l0,8l4,0l0,-8L120.857,120.44744873046875l0,8L124.857,128.44744873046875l0,-8c0,-2.21,-1.79,-4,-4,-4Zm4,32l-4,0l0,4c2.21,0,4,-1.79,4,-4ZM84.857,132.44744873046875l0,4L128.857,136.44744873046875l0,-4l-44,0Zm12,16l0,4l4,0l0,-4l-4,0Zm24,-8l0,4L124.857,144.44744873046875l0,-4l-4,0Zm-16,8l0,4l4,0l0,-4l-4,0Zm-16,0c0,2.21,1.79,4,4,4l0,-4l-4,0Z"></path><path d="M132.312,153.35899353027344l-3.465,-2l-2,3.464l3.464,2l2,-3.464Zm-18.929,16.785l-3.464,-2l-2,3.464l3.464,2l2,-3.464ZM137.096,193.07180786132812l14,-24.249c1.105,-1.914,0.45,-4.359,-1.464,-5.464l-6.928,-4l-2,3.464l6.928,4L133.632,191.07180786132812l-6.928,-4L124.704,190.53590393066406l6.928,4c1.914,1.105,4.359,0.45,5.464,-1.464Zm-29.713,-12.536l2,-3.464l-3.464,-2c-1.105,1.914,-0.45,4.359,1.464,5.464ZM141.24,153.89488220214844l-3.464,-2L115.776,190.00001525878906l3.464,2l22,-38.105Zm-19.857,2.392l-3.464,-2l-2,3.464l3.464,2l2,-3.464Zm-5.072,24.785l-3.464,-2L110.847,182.53590393066406l3.465,2l2,-3.464Zm1.072,-17.856l-3.464,-2l-2,3.464l3.464,2l2,-3.464Zm8,-13.856c-1.914,-1.105,-4.359,-0.45,-5.464,1.464l3.464,2l2,-3.464Z"></path><path d="M99.403,184.53590393066406l3.464,-2l-2,-3.464l-3.464,2l2,3.464Zm-5.072,-24.785l3.464,-2l-2,-3.464l-3.464,2l2,3.464ZM62.618,168.82308959960938l14,24.249c1.105,1.914,3.55,2.569,5.464,1.464l6.928,-4l-2,-3.464l-6.928,4L66.082,166.82308959960938l6.928,-4L71.01,159.35899353027344l-6.928,4c-1.914,1.105,-2.569,3.55,-1.464,5.464Zm25.713,-19.464l2,3.464l3.464,-2c-1.105,-1.914,-3.55,-2.569,-5.464,-1.464ZM94.474,192.00001525878906l3.465,-2L75.939,151.89488220214844l-3.465,2l22,38.105Zm7.857,-18.392l3.464,-2l-2,-3.464l-3.464,2l2,3.464Zm-18.928,-16.785l3.464,-2L84.867,151.35899353027344l-3.464,2l2,3.464Zm14.928,9.856l3.464,-2l-2,-3.464l-3.464,2l2,3.464Zm8,13.856c1.914,-1.105,2.569,-3.55,1.464,-5.464l-3.464,2l2,3.464Z"></path></g><g><path d="M60.695,103.40345764160156l-3.464,2l2,3.464l3.464,-2l-2,-3.464Zm5.072,24.785l-3.464,2l2,3.464l3.464,-2l-2,-3.464ZM97.48,119.11627197265625l-14,-24.249c-1.105,-1.914,-3.55,-2.569,-5.464,-1.464l-6.928,4l2,3.464l6.928,-4L94.016,121.11627197265625l-6.929,4L89.087,128.5803680419922l6.929,-4c1.914,-1.105,2.569,-3.55,1.464,-5.464Zm-25.713,19.464l-2,-3.464l-3.464,2c1.105,1.914,3.55,2.569,5.464,1.464ZM65.623,95.9393539428711l-3.464,2L84.159,136.0444793701172l3.464,-2l-22,-38.105Zm-7.856,18.392l-3.464,2l2,3.464l3.464,-2l-2,-3.464Zm18.928,16.785l-3.464,2L75.231,136.5803680419922l3.464,-2l-2,-3.464Zm-14.928,-9.856l-3.464,2l2,3.464l3.464,-2l-2,-3.464Zm-8,-13.856c-1.914,1.105,-2.569,3.55,-1.464,5.464l3.464,-2l-2,-3.464Z"></path><path d="M71.241,147.4923553466797l-0.001,-4.001l-4,0l0,4l4,0Zm-24.001,-8l0,-4l-4,0l0,4l4,0ZM39.241,171.49183654785156l28,0c2.21,0,4,-1.79,4,-4l0,-8l-4,0l0,8L39.241,167.49192810058594l0,-8L35.241,159.49209594726562l0,8c0,2.21,1.79,4,4,4Zm-4,-32l4,0l0,-4c-2.21,0,-4,1.79,-4,4ZM75.241,155.4921875l0,-4L31.241,151.49227905273438l0,4l44,0Zm-12,-16.001l0,-4l-4,0l0,4l4,0Zm-24,8l0,-4L35.24,143.49159240722656l0.001,4.001l4,0Zm16,-8l0,-4l-4,0l0,4l4,0Zm16,0c0,-2.21,-1.79,-4,-4,-4l0,4l4,0Z"></path><path d="M27.786,134.58079528808594l3.464,2l2,-3.464l-3.464,-2l-2,3.464Zm18.929,-16.785l3.464,2l2,-3.464l-3.464,-2l-2,3.464ZM23.002,94.86763763427734l-14.001,24.249c-1.105,1.914,-0.45,4.359,1.464,5.464l6.928,4l2,-3.464l-6.928,-4L26.466,96.86754608154297l6.928,4L35.394,97.40326690673828l-6.928,-4c-1.914,-1.105,-4.359,-0.45,-5.464,1.464Zm29.712,12.536l-2,3.464l3.464,2c1.105,-1.914,0.45,-4.359,-1.464,-5.464ZM18.858,134.04420471191406l3.464,2.001L44.322,97.93985748291016l-3.464,-2.001l-22,38.105Zm19.856,-2.392l3.464,2l2,-3.464l-3.464,-2l-2,3.464Zm5.072,-24.785l3.464,2L49.25,105.4037857055664l-3.464,-2l-2,3.464Zm-1.072,17.856l3.464,2l2,-3.464l-3.464,-2l-2,3.464Zm-8,13.856c1.914,1.105,4.359,0.45,5.464,-1.464l-3.464,-2l-2,3.464Z"></path></g><g><path d="M78.695,60.4925422668457l-3.464,-2l-2,3.464l3.464,2l2,-3.464Zm-18.928,16.785l-3.464,-2l-2,3.464l3.464,2l2,-3.464ZM83.48,100.20535278320312l14,-24.249c1.105,-1.914,0.45,-4.359,-1.464,-5.464l-6.928,-4l-2,3.464l6.928,4L80.016,98.20535278320312l-6.928,-4L71.088,97.6694564819336l6.928,4c1.914,1.105,4.359,0.45,5.464,-1.464Zm-29.713,-12.536l2,-3.464l-3.464,-2c-1.105,1.914,-0.45,4.359,1.464,5.464ZM87.623,61.028438568115234l-3.464,-2L62.159,97.13356018066406l3.464,2l22,-38.105Zm-19.856,2.392l-3.464,-2l-2,3.464l3.464,2l2,-3.464Zm-5.072,24.785l-3.464,-2L57.231,89.6694564819336l3.464,2l2,-3.464Zm1.072,-17.856l-3.464,-2l-2,3.464l3.464,2l2,-3.464Zm8,-13.856c-1.914,-1.105,-4.359,-0.45,-5.464,1.464l3.464,2l2,-3.464Z"></path><path d="M45.786,91.66990661621094l3.465,-2.001l-2,-3.464l-3.464,2l2,3.464Zm-5.072,-24.785l3.464,-2l-2,-3.464l-3.464,2l2,3.464ZM9.002,75.95655822753906l14,24.249c1.105,1.914,3.55,2.569,5.464,1.464l6.928,-4l-2,-3.464l-6.928,4L12.466,73.95664978027344l6.928,-4L17.394,66.49272155761719l-6.928,4c-1.914,1.105,-2.569,3.55,-1.464,5.464Zm25.713,-19.464l2,3.464l3.464,-2c-1.105,-1.914,-3.55,-2.569,-5.464,-1.464ZM40.858,99.13383483886719l3.464,-2L22.322,59.0287971496582l-3.464,2l22,38.105Zm7.857,-18.393l3.464,-2l-2,-3.464l-3.464,2l2,3.464Zm-18.928,-16.785l3.464,-2L31.251,58.492210388183594l-3.465,2.001l2,3.464Zm14.928,9.856l3.464,-2l-2,-3.464l-3.464,2l2,3.464Zm8,13.856c1.914,-1.105,2.569,-3.55,1.464,-5.464l-3.464,2l2,3.464Z"></path><path d="M35.241,47.581417083740234l0,4l4,0l0,-4l-4,0Zm24,8l0,4l4,0l0,-4l-4,0ZM67.241,23.581077575683594l-28.001,0c-2.21,0,-4,1.79,-4,4l0,8l4,0l0,-8L67.241,27.580989837646484l0,8L71.241,35.580814361572266l0,-8c0,-2.21,-1.79,-4,-4,-4Zm4,32l-4,0l0,4c2.21,0,4,-1.79,4,-4ZM31.241,39.58072280883789l-0.001,4.001L75.24,43.58150100708008l0.001,-4.001l-44,0Zm11.999,16l0,4l4,0l0,-4l-4,0Zm24,-8l0,4L71.241,51.581329345703125l0,-4l-4,0Zm-16,8l0,4l4,0l0,-4l-4,0Zm-16,0c0,2.21,1.79,4,4,4l0,-4l-4,0Z"></path></g><g><path d="M124.857,54.625614166259766l0,-4l-4,0l0,4l4,0Zm-24,-8l0,-4l-4,0l0,4l4,0ZM92.857,78.62561798095703l28,0c2.21,0,4,-1.79,4,-4l0,-8l-4,0l0,8L92.857,74.62561798095703l0,-8L88.857,66.62561798095703l0,8c0,2.21,1.79,4,4,4Zm-4,-32l4,0l0,-4c-2.21,0,-4,1.79,-4,4ZM128.857,62.625614166259766l0,-4L84.857,58.625614166259766l0,4l44,0Zm-12,-16l0,-4l-4,0l0,4l4,0Zm-24,8l0,-4L88.857,50.625614166259766l0,4l4,0Zm16,-8l0,-4l-4,0l0,4l4,0Zm16,0c0,-2.21,-1.79,-4,-4,-4l0,4l4,0Z"></path><path d="M81.402,41.714073181152344l3.465,2l2,-3.464l-3.464,-2l-2,3.464Zm18.929,-16.785l3.464,2l2,-3.464l-3.464,-2l-2,3.464ZM76.618,2.0012612342834473l-14,24.249c-1.105,1.914,-0.45,4.359,1.464,5.464l6.928,4l2,-3.464l-6.928,-4L80.082,4.0012617111206055l6.928,4L89.01,4.537158012390137l-6.928,-4c-1.914,-1.105,-4.359,-0.45,-5.464,1.464Zm29.713,12.536l-2,3.464l3.464,2c1.105,-1.914,0.45,-4.359,-1.464,-5.464ZM72.474,41.17817687988281l3.464,2L97.938,5.073054313659668l-3.464,-2l-22,38.105Zm19.857,-2.392l3.464,2l2,-3.464l-3.464,-2l-2,3.464Zm5.072,-24.785l3.464,2L102.867,12.53715705871582l-3.465,-2l-2,3.464Zm-1.072,17.856l3.464,2l2,-3.464l-3.464,-2l-2,3.464Zm-8,13.856c1.914,1.105,4.359,0.45,5.464,-1.464l-3.464,-2l-2,3.464Z"></path><path d="M114.311,10.53715705871582l-3.464,2l2,3.464l3.464,-2l-2,-3.464Zm5.072,24.785l-3.464,2l2,3.464l3.464,-2l-2,-3.464ZM151.096,26.24997329711914l-14,-24.249c-1.105,-1.914,-3.55,-2.569,-5.464,-1.464l-6.928,4l2,3.464l6.928,-4L147.632,28.24997329711914l-6.928,4L142.704,35.714073181152344l6.928,-4c1.914,-1.105,2.569,-3.55,1.464,-5.464Zm-25.713,19.464l-2,-3.464l-3.464,2c1.105,1.914,3.55,2.569,5.464,1.464ZM119.24,3.0730538368225098l-3.465,2L137.775,43.17817306518555l3.465,-2l-22,-38.105Zm-7.857,18.392l-3.464,2l2,3.464l3.464,-2l-2,-3.464Zm18.928,16.785l-3.464,2L128.847,43.714073181152344l3.464,-2l-2,-3.464Zm-14.928,-9.856l-3.464,2l2,3.464l3.464,-2l-2,-3.464Zm-8,-13.856c-1.914,1.105,-2.569,3.55,-1.464,5.464l3.464,-2l-2,-3.464Z"></path></g><g><path d="M153.019,91.66961669921875l3.464,-2l-2,-3.464l-3.464,2l2,3.464Zm-5.072,-24.785l3.464,-2l-2,-3.464l-3.464,2l2,3.464ZM116.235,75.95680236816406l14,24.249c1.105,1.914,3.55,2.569,5.464,1.464l6.928,-4l-2,-3.464l-6.928,4L119.699,73.95680236816406l6.928,-4L124.627,66.4926986694336l-6.928,4c-1.914,1.105,-2.569,3.55,-1.464,5.464Zm25.712,-19.464l2,3.464l3.464,-2c-1.105,-1.914,-3.55,-2.569,-5.464,-1.464ZM148.091,99.13371276855469l3.464,-2L129.555,59.02859878540039l-3.464,2l22,38.105Zm7.856,-18.392l3.464,-2l-2,-3.464l-3.464,2l2,3.464Zm-18.928,-16.785l3.464,-2L138.483,58.492698669433594l-3.464,2l2,3.464Zm14.928,9.856l3.464,-2l-2,-3.464l-3.464,2l2,3.464Zm8,13.856c1.914,-1.105,2.569,-3.55,1.464,-5.464l-3.464,2l2,3.464Z"></path><path d="M142.473,47.58070755004883l0.001,4.001l4,0l0,-4l-4,0Zm24.001,8l0,4l4,0l0,-4l-4,0ZM174.474,23.581239700317383l-28.001,0c-2.21,0,-4,1.79,-4,4l0,8l4,0l0,-8L174.474,27.581148147583008l0,8L178.474,35.580970764160156l0,-8c0,-2.21,-1.79,-4,-4,-4Zm4,32l-4,0l0,4c2.21,0,4,-1.79,4,-4ZM138.473,39.58088302612305l0,4L182.473,43.58079147338867l0,-4l-44,0Zm12,16.001l0,4l4,0l0,-4l-4,0Zm24,-8l0,4L178.474,51.581485748291016l-0.001,-4.001l-4,0Zm-16,8l0,4l4,0l0,-4l-4,0Zm-16,0c0,2.21,1.79,4,4,4l0,-4l-4,0Z"></path><path d="M185.928,60.492279052734375l-3.464,-2l-2,3.464l3.464,2l2,-3.464Zm-18.929,16.785l-3.464,-2l-2,3.464l3.464,2l2,-3.464ZM190.713,100.20543670654297l14,-24.249c1.105,-1.914,0.45,-4.359,-1.464,-5.464l-6.928,-4l-2,3.464l6.928,4L187.249,98.20552062988281l-6.928,-4L178.321,97.6697998046875l6.928,4c1.914,1.105,4.359,0.45,5.464,-1.464Zm-29.713,-12.536l2,-3.464l-3.464,-2c-1.105,1.914,-0.45,4.359,1.464,5.464ZM194.856,61.02886962890625l-3.464,-2.001L169.392,97.13320922851562l3.464,2.001l22,-38.105Zm-19.856,2.392l-3.464,-2l-2,3.464l3.464,2l2,-3.464Zm-5.072,24.785l-3.464,-2L164.464,89.66928100585938l3.464,2l2,-3.464Zm1.072,-17.856l-3.464,-2l-2,3.464l3.464,2l2,-3.464Zm8,-13.856c-1.914,-1.105,-4.359,-0.45,-5.464,1.464l3.464,2l2,-3.464Z"></path></g><g><path d="M135.019,134.58053588867188l3.464,2l2,-3.464l-3.464,-2l-2,3.464Zm18.928,-16.785l3.464,2l2,-3.464l-3.464,-2l-2,3.464ZM130.234,94.86771392822266l-14,24.249c-1.105,1.914,-0.45,4.359,1.464,5.464l6.928,4l2,-3.464l-6.928,-4L133.699,96.86771392822266l6.928,4L142.627,97.40361785888672l-6.928,-4c-1.914,-1.105,-4.359,-0.45,-5.464,1.464Zm29.713,12.536l-2,3.464l3.464,2c1.105,-1.914,0.45,-4.359,-1.464,-5.464ZM126.091,134.0446319580078l3.464,2L151.555,97.93951416015625l-3.464,-2l-22,38.105Zm19.856,-2.392l3.464,2l2,-3.464l-3.464,-2l-2,3.464Zm5.072,-24.785l3.464,2L156.483,105.40361785888672l-3.464,-2l-2,3.464Zm-1.072,17.856l3.464,2l2,-3.464l-3.464,-2l-2,3.464Zm-8,13.856c1.914,1.105,4.359,0.45,5.464,-1.464l-3.464,-2l-2,3.464Z"></path><path d="M167.928,103.40316009521484l-3.464,2.001l2,3.464l3.464,-2l-2,-3.464Zm5.072,24.785l-3.464,2l2,3.464l3.464,-2l-2,-3.464ZM204.713,119.11650848388672l-14.001,-24.249c-1.105,-1.914,-3.55,-2.569,-5.464,-1.464l-6.928,4l2,3.464l6.928,-4L201.249,121.11641693115234l-6.929,4L196.32,128.58035278320312l6.929,-4c1.914,-1.105,2.569,-3.55,1.464,-5.464Zm-25.713,19.464l-2,-3.464l-3.464,2c1.105,1.914,3.55,2.569,5.464,1.464ZM172.856,95.9392318725586l-3.464,2L191.392,136.0442657470703l3.464,-2l-22,-38.105Zm-7.857,18.393l-3.464,2l2,3.464l3.464,-2l-2,-3.464Zm18.928,16.785l-3.464,2L182.464,136.5808563232422l3.464,-2.001l-2,-3.464Zm-14.928,-9.856l-3.464,2l2,3.464l3.464,-2l-2,-3.464Zm-8,-13.856c-1.914,1.105,-2.569,3.55,-1.464,5.464l3.464,-2l-2,-3.464Z"></path><path d="M178.474,147.4916534423828l0,-4l-4,0l0,4l4,0Zm-24.001,-8l0,-4l-4,0l0,4l4,0ZM146.474,171.4919891357422l28,0c2.21,0,4,-1.79,4,-4l0,-8l-4,0l0,8L146.474,167.49208068847656l-0.001,-8L142.473,159.49224853515625l0.001,8c0,2.21,1.79,4,4,4Zm-4,-32l4,0l0,-4c-2.21,0,-4,1.79,-4,4ZM182.473,155.49234008789062l0.001,-4.001L138.474,151.49156188964844l-0.001,4.001l44,0Zm-11.999,-16l0,-4l-4,0l0,4l4,0Zm-24,8l0,-4L142.474,143.4917449951172l0,4l4,0Zm16,-8l0,-4l-4,0l0,4l4,0Zm16,0c0,-2.21,-1.79,-4,-4,-4l0,4l4,0Z"></path></g></g></symbol></defs><rect width="100%" height="100%" id="Pattern1607RctLayer1" fill="url(#Pattern1607Layer1)"></rect><rect width="100%" height="100%" id="Pattern1607RctLayer2" fill="url(#Pattern1607Layer2)"></rect></svg>