<svg xmlns="http://www.w3.org/2000/svg" version="1.1" xmlns:xlink="http://www.w3.org/1999/xlink" xmlns:svgjs="http://svgjs.dev/svgjs" id="BgenPttrnSvgRootPreview" width="100%" height="100%"><defs><pattern x="0" y="0" width="1" height="1" patternUnits="userSpaceOnUse" id="BgenPttrnLayer1"><g id="PatternRootContent1"><g id="BgenPttrnLayer1background"><rect width="1" height="1" id="BgenPttrnBackground1" class="color_1 fill_color_1" fill="#6e6e6e"></rect></g></g></pattern><pattern x="0" y="0" width="54" height="94" patternUnits="userSpaceOnUse" id="BgenPttrnLayer2" patternTransform="matrix(0.8,0,0,0.8,0,0)"><g id="PatternRootContent2"><g id="BgenPttrnLayer2Element2"><use xlink:href="#BgenPttrnElement2" x="10.35898208618164" y="-61.29423141479492" transform="translate(54, -23.5) scale(1) translate(-54, 23.5) rotate(90, 54, -23.5)"></use><use xlink:href="#BgenPttrnElement2" x="-43.64101791381836" y="-61.29423141479492" transform="translate(0, -23.5) scale(1) translate(0, 23.5) rotate(90, 0, -23.5)"></use><use xlink:href="#BgenPttrnElement2" x="-16.64101791381836" y="-14.294231414794922" transform="translate(27, 23.5) scale(1) translate(-27, -23.5) rotate(90, 27, 23.5)"></use><use xlink:href="#BgenPttrnElement2" x="-70.64101791381836" y="-14.294231414794922" transform="translate(-27, 23.5) scale(1) translate(27, -23.5) rotate(90, -27, 23.5)"></use><use xlink:href="#BgenPttrnElement2" x="37.35898208618164" y="-14.294231414794922" transform="translate(81, 23.5) scale(1) translate(-81, -23.5) rotate(90, 81, 23.5)"></use><use xlink:href="#BgenPttrnElement2" x="10.35898208618164" y="32.70576858520508" transform="translate(54, 70.5) scale(1) translate(-54, -70.5) rotate(90, 54, 70.5)"></use><use xlink:href="#BgenPttrnElement2" x="-43.64101791381836" y="32.70576858520508" transform="translate(0, 70.5) scale(1) translate(0, -70.5) rotate(90, 0, 70.5)"></use><use xlink:href="#BgenPttrnElement2" x="-16.64101791381836" y="79.70576858520508" transform="translate(27, 117.5) scale(1) translate(-27, -117.5) rotate(90, 27, 117.5)"></use><use xlink:href="#BgenPttrnElement2" x="-16.64101791381836" y="79.70576858520508" transform="translate(27, 117.5) scale(1) translate(-27, -117.5) rotate(90, 27, 117.5)"></use></g></g></pattern><symbol id="BgenPttrnElement2"><g class="color_3 fill_color_3" fill="#8f8181"><path d="M33.641,35.99995803833008l4,0L37.641,11.999958038330078l-4,0l0,24Zm8,8l4,0L45.641,3.999958038330078l-4,0l0,40ZM25.641,27.999958038330078l4,0l0,-8L25.641,19.999958038330078l0,8Zm24,8l4,0L53.641,11.999958038330078l-4,0l0,24Zm8,-16l0,8l4,0l0,-8l-4,0Z" transform="matrix(1,0,0,1,0,0)"></path><path d="M55.569,39.33970260620117l-2,3.464L74.354,54.80380630493164l2,-3.464l-20.785,-12Zm-10.928,2.928l-2,3.464L77.282,65.73200988769531l2,-3.464l-34.641,-20ZM66.497,36.4114990234375l-2,3.464l6.928,4L73.426,40.4114990234375l-6.929,-4Zm-18.928,16.785l-2,3.464L66.354,68.66021728515625l2,-3.464l-20.785,-12Zm9.856,14.928l-6.928,-4l-2,3.464l6.928,4l2,-3.464Z" transform="matrix(1,0,0,1,0,0)"></path><path d="M41.713,56.660213470458984l-2,-3.464L18.928,65.19610595703125l2,3.464l20.785,-12Zm2.928,-10.928l-2,-3.464L8,62.267906188964844l2,3.464l34.641,-20ZM38.785,67.58841705322266l-2,-3.464l-6.928,4L31.856,71.58841705322266l6.929,-4Zm-5.072,-24.785l-2,-3.464L10.928,51.33970260620117l2,3.464l20.785,-12Zm-17.856,1.072l6.928,-4l-2,-3.464l-6.928,4l2,3.464Z" transform="matrix(1,0,0,1,0,0)"></path></g></symbol></defs><rect width="100%" height="100%" id="BgenPttrnRctLayer1" fill="url(&quot;#BgenPttrnLayer1&quot;)"></rect><rect width="100%" height="100%" id="BgenPttrnRctLayer2" fill="url(&quot;#BgenPttrnLayer2&quot;)"></rect></svg>