<svg xmlns="http://www.w3.org/2000/svg" version="1.1" xmlns:xlink="http://www.w3.org/1999/xlink" xmlns:svgjs="http://svgjs.com/svgjs" id="Pattern1676SvgRootPreview" width="100%" height="100%"><defs><pattern x="0" y="0" width="1" height="1" patternUnits="userSpaceOnUse" id="Pattern1676Layer1"><g id="PatternRootContent1"><g id="Pattern1676Layer1background"><rect width="1" height="1" id="Pattern1676Background1" class="color_1 fill_color_1" fill="#ffe9a2"></rect></g></g></pattern><pattern x="0" y="0" width="32" height="90" patternUnits="userSpaceOnUse" id="Pattern1676Layer2"><g id="PatternRootContent2"><g id="Pattern1676Layer2Element1"><use xlink:href="#Pattern1676Element1" x="8" y="-46.5" transform="translate(26, -28.5) scale(1) translate(-26, 28.5) rotate(45, 32, -22.5)"></use><use xlink:href="#Pattern1676Element1" x="-24" y="-46.5" transform="translate(-6, -28.5) scale(1) translate(6, 28.5) rotate(45, 0, -22.5)"></use><use xlink:href="#Pattern1676Element1" x="-8" y="-1.5" transform="translate(10, 16.5) scale(1) translate(-10, -16.5) rotate(45, 16, 22.5)"></use><use xlink:href="#Pattern1676Element1" x="-40" y="-1.5" transform="translate(-22, 16.5) scale(1) translate(22, -16.5) rotate(45, -16, 22.5)"></use><use xlink:href="#Pattern1676Element1" x="24" y="-1.5" transform="translate(42, 16.5) scale(1) translate(-42, -16.5) rotate(45, 48, 22.5)"></use><use xlink:href="#Pattern1676Element1" x="8" y="43.5" transform="translate(26, 61.5) scale(1) translate(-26, -61.5) rotate(45, 32, 67.5)"></use><use xlink:href="#Pattern1676Element1" x="-24" y="43.5" transform="translate(-6, 61.5) scale(1) translate(6, -61.5) rotate(45, 0, 67.5)"></use><use xlink:href="#Pattern1676Element1" x="-8" y="88.5" transform="translate(10, 106.5) scale(1) translate(-10, -106.5) rotate(45, 16, 112.5)"></use><use xlink:href="#Pattern1676Element1" x="-8" y="88.5" transform="translate(10, 106.5) scale(1) translate(-10, -106.5) rotate(45, 16, 112.5)"></use></g></g></pattern><symbol id="Pattern1676Element1"><path d="M6 10v8h4v-8h8V6h-8c-2.21 0-4 1.79-4 4zm4 20H6v8c0 2.21 1.79 4 4 4h8v-4h-8v-8zm28 8h-8v4h8c2.21 0 4-1.79 4-4v-8h-4v8zm0-32h-8v4h8v8h4v-8c0-2.21-1.79-4-4-4z" class="color_2 fill_color_2" fill="#bcd595"></path></symbol></defs><rect width="100%" height="100%" id="Pattern1676RctLayer1" fill="url(#Pattern1676Layer1)"></rect><rect width="100%" height="100%" id="Pattern1676RctLayer2" fill="url(#Pattern1676Layer2)"></rect></svg>